<svg width="32" height="32" viewBox="0 0 32 32" fill="none" xmlns="http://www.w3.org/2000/svg">
<path d="M20.3147 29.3334C20.8268 28.7609 21.1633 28.053 21.2839 27.2944C21.4045 26.5358 21.3041 25.7585 20.9948 25.0554C20.6854 24.3524 20.1802 23.7532 19.5394 23.3296C18.8986 22.906 18.1494 22.6759 17.3813 22.6667" stroke="#3E4D33" stroke-width="2.66667" stroke-linecap="round" stroke-linejoin="round"/>
<path d="M21.3334 26.6666C21.3334 25.6058 21.7548 24.5884 22.5049 23.8382C23.2551 23.0881 24.2725 22.6666 25.3334 22.6666H26.6667C27.374 22.6666 28.0522 22.3857 28.5523 21.8856C29.0524 21.3855 29.3334 20.7072 29.3334 20V17.3333C29.3334 15.9188 28.7715 14.5623 27.7713 13.5621C26.7711 12.5619 25.4145 12 24 12V5.33331" stroke="#3E4D33" stroke-width="2.66667" stroke-linecap="round" stroke-linejoin="round"/>
<path d="M24 17.3333H24.0133" stroke="#3E4D33" stroke-width="2.66667" stroke-linecap="round" stroke-linejoin="round"/>
<path d="M24 8.00002C22.5855 8.00002 21.2289 8.56192 20.2287 9.56212C19.2285 10.5623 18.6666 11.9189 18.6666 13.3334C16.1913 13.3334 13.8173 14.3167 12.067 16.067C10.3166 17.8174 9.33329 20.1913 9.33329 22.6667C9.33329 16 14.6666 16 14.6666 8.66669C14.6666 7.87876 14.5114 7.09854 14.2099 6.37059C13.9084 5.64263 13.4664 4.9812 12.9093 4.42405C12.3521 3.86689 11.6907 3.42494 10.9627 3.12341C10.2348 2.82188 9.45456 2.66669 8.66663 2.66669C7.87869 2.66669 7.09848 2.82188 6.37053 3.12341C5.64257 3.42494 4.98114 3.86689 4.42399 4.42405C3.86683 4.9812 3.42488 5.64263 3.12335 6.37059C2.82182 7.09854 2.66663 7.87876 2.66663 8.66669C2.66663 9.55074 3.01782 10.3986 3.64294 11.0237C4.26806 11.6488 5.1159 12 5.99996 12C6.88401 12 7.73186 11.6488 8.35698 11.0237C8.9821 10.3986 9.33329 9.55074 9.33329 8.66669C9.33329 13.3334 3.99996 14.6667 3.99996 22.6667C3.99996 26.4 6.93329 29.3334 10.6666 29.3334H24" stroke="#3E4D33" stroke-width="2.66667" stroke-linecap="round" stroke-linejoin="round"/>
</svg>
