<svg width="28" height="28" viewBox="0 0 28 28" fill="none" xmlns="http://www.w3.org/2000/svg">
<path d="M14 2.33334V4.66668" stroke="#B8672E" stroke-width="2.33333" stroke-linecap="round" stroke-linejoin="round"/>
<path d="M5.75171 5.75168L7.39671 7.39668" stroke="#B8672E" stroke-width="2.33333" stroke-linecap="round" stroke-linejoin="round"/>
<path d="M23.3334 14H25.6667" stroke="#B8672E" stroke-width="2.33333" stroke-linecap="round" stroke-linejoin="round"/>
<path d="M22.2483 5.75168L20.6033 7.39668" stroke="#B8672E" stroke-width="2.33333" stroke-linecap="round" stroke-linejoin="round"/>
<path d="M18.6049 14.7583C18.7485 13.8886 18.6428 12.9959 18.3 12.1838C17.9573 11.3716 17.3915 10.6731 16.6682 10.1692C15.9449 9.6653 15.0937 9.37654 14.2131 9.33639C13.3325 9.29623 12.4585 9.50632 11.6924 9.94233" stroke="#B8672E" stroke-width="2.33333" stroke-linecap="round" stroke-linejoin="round"/>
<path d="M15.1666 25.6667H8.16662C7.06292 25.6664 5.98193 25.3531 5.0492 24.763C4.11646 24.173 3.37027 23.3304 2.89728 22.3332C2.42429 21.336 2.24392 20.225 2.3771 19.1294C2.51029 18.0338 2.95158 16.9984 3.64971 16.1435C4.34783 15.2887 5.27416 14.6494 6.32109 14.3C7.36803 13.9506 8.49261 13.9054 9.56422 14.1696C10.6358 14.4338 11.6105 14.9966 12.375 15.7926C13.1395 16.5887 13.6625 17.5853 13.8833 18.6667H15.1666C16.0949 18.6667 16.9851 19.0354 17.6415 19.6918C18.2979 20.3482 18.6666 21.2384 18.6666 22.1667C18.6666 23.0949 18.2979 23.9852 17.6415 24.6415C16.9851 25.2979 16.0949 25.6667 15.1666 25.6667Z" stroke="#B8672E" stroke-width="2.33333" stroke-linecap="round" stroke-linejoin="round"/>
</svg>
